<svg width="20" height="20" viewBox="0 0 20 20" fill="none" xmlns="http://www.w3.org/2000/svg">
<g clip-path="url(#clip0_1522_624)">
<path d="M6.81106 6.11155C6.81106 4.34953 8.23793 2.92266 9.99994 2.92266C11.762 2.92266 13.1888 4.34953 13.1888 6.11155C13.1888 7.87356 11.762 9.30044 9.99994 9.30044C8.23793 9.30044 6.81106 7.87356 6.81106 6.11155ZM2.92217 14.8615C2.92217 14.4721 3.11169 14.0792 3.54717 13.6773C3.9874 13.271 4.63067 12.9045 5.39793 12.5971C6.93358 11.9819 8.78953 11.6727 9.99994 11.6727C11.2104 11.6727 13.0663 11.9819 14.602 12.5971C15.3692 12.9045 16.0125 13.271 16.4527 13.6773C16.8882 14.0792 17.0777 14.4721 17.0777 14.8615V17.0782H2.92217V14.8615Z" stroke="#C2CFE0" stroke-width="1.4"/>
</g>
<defs>
<clipPath id="clip0_1522_624">
<rect width="20" height="20" fill="white"/>
</clipPath>
</defs>
</svg>
