<svg width="20" height="20" viewBox="0 0 20 20" fill="none" xmlns="http://www.w3.org/2000/svg">
<g clip-path="url(#clip0_1522_604)">
<path d="M5.00016 8.33301C4.0835 8.33301 3.3335 9.08301 3.3335 9.99967C3.3335 10.9163 4.0835 11.6663 5.00016 11.6663C5.91683 11.6663 6.66683 10.9163 6.66683 9.99967C6.66683 9.08301 5.91683 8.33301 5.00016 8.33301ZM15.0002 8.33301C14.0835 8.33301 13.3335 9.08301 13.3335 9.99967C13.3335 10.9163 14.0835 11.6663 15.0002 11.6663C15.9168 11.6663 16.6668 10.9163 16.6668 9.99967C16.6668 9.08301 15.9168 8.33301 15.0002 8.33301ZM10.0002 8.33301C9.0835 8.33301 8.3335 9.08301 8.3335 9.99967C8.3335 10.9163 9.0835 11.6663 10.0002 11.6663C10.9168 11.6663 11.6668 10.9163 11.6668 9.99967C11.6668 9.08301 10.9168 8.33301 10.0002 8.33301Z" fill="#C2CFE0"/>
</g>
<defs>
<clipPath id="clip0_1522_604">
<rect width="20" height="20" fill="white"/>
</clipPath>
</defs>
</svg>
