<svg width="12" height="12" viewBox="0 0 12 12" fill="none" xmlns="http://www.w3.org/2000/svg">
<g clip-path="url(#clip0_9958_1386)">
<mask id="path-1-inside-1_9958_1386" fill="white">
<path d="M10.625 12H1.37503C0.616516 12 0 11.3835 0 10.6249V2.37494C0 1.61642 0.616516 1 1.37503 1H10.625C11.3835 1 12 1.61642 12 2.37494V10.6249C12 11.3835 11.3835 12 10.625 12ZM1.37503 1.75C1.03052 1.75 0.75 2.03043 0.75 2.37494V10.6249C0.75 10.9694 1.03052 11.25 1.37503 11.25H10.625C10.9695 11.25 11.25 10.9694 11.25 10.6249V2.37494C11.25 2.03043 10.9695 1.75 10.625 1.75H1.37503Z"/>
</mask>
<path d="M10.625 12H1.37503C0.616516 12 0 11.3835 0 10.6249V2.37494C0 1.61642 0.616516 1 1.37503 1H10.625C11.3835 1 12 1.61642 12 2.37494V10.6249C12 11.3835 11.3835 12 10.625 12ZM1.37503 1.75C1.03052 1.75 0.75 2.03043 0.75 2.37494V10.6249C0.75 10.9694 1.03052 11.25 1.37503 11.25H10.625C10.9695 11.25 11.25 10.9694 11.25 10.6249V2.37494C11.25 2.03043 10.9695 1.75 10.625 1.75H1.37503Z" fill="#B4B4B4"/>
<path d="M10.625 11H1.37503V13H10.625V11ZM1.37503 11C1.1688 11 1 10.8312 1 10.6249H-1C-1 11.9357 0.0642315 13 1.37503 13V11ZM1 10.6249V2.37494H-1V10.6249H1ZM1 2.37494C1 2.1688 1.16871 2 1.37503 2V0C0.0643182 0 -1 1.06405 -1 2.37494H1ZM1.37503 2H10.625V0H1.37503V2ZM10.625 2C10.8313 2 11 2.1688 11 2.37494H13C13 1.06405 11.9357 0 10.625 0V2ZM11 2.37494V10.6249H13V2.37494H11ZM11 10.6249C11 10.8312 10.8312 11 10.625 11V13C11.9358 13 13 11.9357 13 10.6249H11ZM1.37503 0.75C0.478424 0.75 -0.25 1.47795 -0.25 2.37494H1.75C1.75 2.5829 1.58261 2.75 1.37503 2.75V0.75ZM-0.25 2.37494V10.6249H1.75V2.37494H-0.25ZM-0.25 10.6249C-0.25 11.5217 0.478233 12.25 1.37503 12.25V10.25C1.5828 10.25 1.75 10.4172 1.75 10.6249H-0.25ZM1.37503 12.25H10.625V10.25H1.37503V12.25ZM10.625 12.25C11.5218 12.25 12.25 11.5217 12.25 10.6249H10.25C10.25 10.4172 10.4172 10.25 10.625 10.25V12.25ZM12.25 10.6249V2.37494H10.25V10.6249H12.25ZM12.25 2.37494C12.25 1.47795 11.5216 0.75 10.625 0.75V2.75C10.4174 2.75 10.25 2.5829 10.25 2.37494H12.25ZM10.625 0.75H1.37503V2.75H10.625V0.75Z" fill="#B4B4B4" mask="url(#path-1-inside-1_9958_1386)"/>
<mask id="path-3-inside-2_9958_1386" fill="white">
<path d="M11.625 4.75H0.375C0.167999 4.75 0 4.582 0 4.375C0 4.168 0.167999 4 0.375 4H11.625C11.832 4 12 4.168 12 4.375C12 4.582 11.832 4.75 11.625 4.75Z"/>
</mask>
<path d="M11.625 4.75H0.375C0.167999 4.75 0 4.582 0 4.375C0 4.168 0.167999 4 0.375 4H11.625C11.832 4 12 4.168 12 4.375C12 4.582 11.832 4.75 11.625 4.75Z" fill="#B4B4B4"/>
<path d="M11.625 3.75H0.375V5.75H11.625V3.75ZM0.375 3.75C0.720284 3.75 1 4.02972 1 4.375H-1C-1 5.13429 -0.384285 5.75 0.375 5.75V3.75ZM1 4.375C1 4.72028 0.720284 5 0.375 5V3C-0.384285 3 -1 3.61571 -1 4.375H1ZM0.375 5H11.625V3H0.375V5ZM11.625 5C11.2797 5 11 4.72028 11 4.375H13C13 3.61571 12.3843 3 11.625 3V5ZM11 4.375C11 4.02972 11.2797 3.75 11.625 3.75V5.75C12.3843 5.75 13 5.13429 13 4.375H11Z" fill="#B4B4B4" mask="url(#path-3-inside-2_9958_1386)"/>
<mask id="path-5-inside-3_9958_1386" fill="white">
<path d="M2.875 3C2.668 3 2.5 2.832 2.5 2.625V0.375C2.5 0.167999 2.668 0 2.875 0C3.082 0 3.25 0.167999 3.25 0.375V2.625C3.25 2.832 3.082 3 2.875 3Z"/>
</mask>
<path d="M2.875 3C2.668 3 2.5 2.832 2.5 2.625V0.375C2.5 0.167999 2.668 0 2.875 0C3.082 0 3.25 0.167999 3.25 0.375V2.625C3.25 2.832 3.082 3 2.875 3Z" fill="#B4B4B4"/>
<path d="M2.875 2C3.22028 2 3.5 2.27972 3.5 2.625H1.5C1.5 3.38429 2.11571 4 2.875 4V2ZM3.5 2.625V0.375H1.5V2.625H3.5ZM3.5 0.375C3.5 0.720284 3.22028 1 2.875 1V-1C2.11571 -1 1.5 -0.384285 1.5 0.375H3.5ZM2.875 1C2.52972 1 2.25 0.720284 2.25 0.375H4.25C4.25 -0.384285 3.63429 -1 2.875 -1V1ZM2.25 0.375V2.625H4.25V0.375H2.25ZM2.25 2.625C2.25 2.27972 2.52972 2 2.875 2V4C3.63429 4 4.25 3.38429 4.25 2.625H2.25Z" fill="#B4B4B4" mask="url(#path-5-inside-3_9958_1386)"/>
<mask id="path-7-inside-4_9958_1386" fill="white">
<path d="M9.125 3C8.918 3 8.75 2.832 8.75 2.625V0.375C8.75 0.167999 8.918 0 9.125 0C9.332 0 9.5 0.167999 9.5 0.375V2.625C9.5 2.832 9.332 3 9.125 3Z"/>
</mask>
<path d="M9.125 3C8.918 3 8.75 2.832 8.75 2.625V0.375C8.75 0.167999 8.918 0 9.125 0C9.332 0 9.5 0.167999 9.5 0.375V2.625C9.5 2.832 9.332 3 9.125 3Z" fill="#B4B4B4"/>
<path d="M9.125 2C9.47028 2 9.75 2.27972 9.75 2.625H7.75C7.75 3.38429 8.36571 4 9.125 4V2ZM9.75 2.625V0.375H7.75V2.625H9.75ZM9.75 0.375C9.75 0.720284 9.47028 1 9.125 1V-1C8.36571 -1 7.75 -0.384285 7.75 0.375H9.75ZM9.125 1C8.77972 1 8.5 0.720284 8.5 0.375H10.5C10.5 -0.384285 9.88429 -1 9.125 -1V1ZM8.5 0.375V2.625H10.5V0.375H8.5ZM8.5 2.625C8.5 2.27972 8.77972 2 9.125 2V4C9.88429 4 10.5 3.38429 10.5 2.625H8.5Z" fill="#B4B4B4" mask="url(#path-7-inside-4_9958_1386)"/>
</g>
<defs>
<clipPath id="clip0_9958_1386">
<rect width="12" height="12" fill="white"/>
</clipPath>
</defs>
</svg>
