<!-- icon666.com - MILLIONS vector ICONS FREE --><svg id="Layer_1" enable-background="new 0 0 64 64" viewBox="0 0 64 64" xmlns="http://www.w3.org/2000/svg"><path d="m53.61 22h-6.61v-6.78c0-.13-.03-.26-.08-.38s-.12-.23-.22-.33l-7.23-7.22c-.09-.09-.21-.17-.33-.22-.11-.04-.23-.07-.36-.07 0 0 0 0-.01 0h-20.77c-.55 0-1 .45-1 1v14h-6.61c-4.08 0-7.39 3.34-7.39 7.45v15.55c0 .55.45 1 1 1h13v12c0 .55.45 1 1 1h28c.55 0 1-.45 1-1v-12h13c.55 0 1-.45 1-1v-15.55c0-4.11-3.31-7.45-7.39-7.45zm-13.61-11.36 3.36 3.36h-3.36zm-21-1.64h19v6c0 .55.45 1 1 1h6v6h-26zm0 48v-18h26v18zm40-13h-12v-5h5c.55 0 1-.45 1-1s-.45-1-1-1h-40c-.55 0-1 .45-1 1s.45 1 1 1h5v5h-12v-14.55c0-3 2.42-5.45 5.39-5.45h43.23c2.97 0 5.39 2.44 5.39 5.45v14.55zm-17 9c0 .55-.45 1-1 1h-18c-.55 0-1-.45-1-1s.45-1 1-1h18c.55 0 1 .45 1 1zm0-5c0 .55-.45 1-1 1h-18c-.55 0-1-.45-1-1s.45-1 1-1h18c.55 0 1 .45 1 1zm0-5c0 .55-.45 1-1 1h-18c-.55 0-1-.45-1-1s.45-1 1-1h18c.55 0 1 .45 1 1zm7-17c-1.65 0-3 1.35-3 3s1.35 3 3 3 3-1.35 3-3-1.35-3-3-3zm0 4c-.55 0-1-.45-1-1s.45-1 1-1 1 .45 1 1-.45 1-1 1z"></path></svg>