<svg xmlns="http://www.w3.org/2000/svg" xmlns:xlink="http://www.w3.org/1999/xlink" viewBox="0,0,256,256" width="50px" height="50px" fill-rule="nonzero"><g fill="#c2cfe0" fill-rule="nonzero" stroke="none" stroke-width="1" stroke-linecap="butt" stroke-linejoin="miter" stroke-miterlimit="10" stroke-dasharray="" stroke-dashoffset="0" font-family="none" font-weight="none" font-size="none" text-anchor="none" style="mix-blend-mode: normal"><g transform="scale(5.33333,5.33333)"><path d="M24,4c-11.02793,0 -20,8.97207 -20,20c0,11.02793 8.97207,20 20,20c11.02793,0 20,-8.97207 20,-20c0,-11.02793 -8.97207,-20 -20,-20zM24,7c9.40662,0 17,7.59339 17,17c0,9.40661 -7.59338,17 -17,17c-9.40661,0 -17,-7.59339 -17,-17c0,-9.40661 7.59339,-17 17,-17zM23.47656,10.97852c-0.82766,0.01293 -1.48843,0.69381 -1.47656,1.52148v1.15234c-2.79221,0.386 -5,2.70524 -5,5.59766c0,3.15782 2.59218,5.75 5.75,5.75h2c1.8121,0 3.25,1.4379 3.25,3.25c0,1.8121 -1.4379,3.25 -3.25,3.25h-2.25c-1.17774,0 -2.14106,-0.79655 -2.41992,-1.86719c-0.12291,-0.53182 -0.52499,-0.95491 -1.04987,-1.10473c-0.52488,-0.14982 -1.08971,-0.00272 -1.47483,0.38409c-0.38512,0.38681 -0.52975,0.95228 -0.37764,1.4765c0.57468,2.20636 2.50862,3.80911 4.82227,4.02734v1.08398c-0.00765,0.54095 0.27656,1.04412 0.74381,1.31683c0.46725,0.27271 1.04514,0.27271 1.51238,0c0.46725,-0.27271 0.75146,-0.77588 0.74381,-1.31683v-1.05078c3.31301,-0.13994 6,-2.85378 6,-6.19922c0,-3.4339 -2.8161,-6.25 -6.25,-6.25h-2c-1.53618,0 -2.75,-1.21382 -2.75,-2.75c0,-1.53618 1.21382,-2.75 2.75,-2.75h0.50391c0.16103,0.02645 0.3253,0.02645 0.48633,0h0.75977c1.16914,0 2.12787,0.78679 2.41406,1.8457c0.13982,0.5175 0.54514,0.92108 1.06324,1.05868c0.5181,0.13759 1.07025,-0.01171 1.44841,-0.39165c0.37816,-0.37994 0.52486,-0.93279 0.38484,-1.45023c-0.58996,-2.18285 -2.51356,-3.76217 -4.81055,-3.97852v-1.08398c0.00582,-0.40562 -0.15288,-0.7963 -0.43991,-1.08296c-0.28703,-0.28666 -0.67792,-0.44486 -1.08353,-0.43852z"></path></g></g></svg>